<?xml version="1.0" encoding="utf-8"?>
<!-- Generator: Adobe Illustrator 25.4.1, SVG Export Plug-In . SVG Version: 6.00 Build 0)  -->
<svg version="1.1" id="Layer_1" xmlns="http://www.w3.org/2000/svg" xmlns:xlink="http://www.w3.org/1999/xlink" x="0px" y="0px"
	 viewBox="0 0 144 72" style="enable-background:new 0 0 144 72;" xml:space="preserve">
<style type="text/css">
	.st0{fill:#4D618A;}
</style>
<g>
	<path class="st0" d="M1,57.7V6.6h5.3v46.3h26v4.8H1z"/>
	<path class="st0" d="M28.4,47.9l-0.5-2.7c-1,0.8-3.7,3.6-9.4,3.6c-5.4,0-10.2-3.9-10.2-10.2c0-6.9,5.3-10.8,13.4-11.7l5.9-0.6v-6
		H10.3l0.9-4.1h21.2v31.8H28.4z M27.6,30l-5.2,0.6c-5.9,0.7-9.3,3.3-9.3,7.7c0,3.7,2.8,6.5,6.7,6.5c4,0,6.7-2.9,7.8-4V30z"/>
	<path class="st0" d="M49.7,47.9l-7.2,20.4h-4.9l7.2-20.4L33.5,16.2h5.2l8.6,25.4L56,16.2h5.2L49.7,47.9z"/>
	<path class="st0" d="M74.8,48.9c-9.3,0-16.7-7.3-16.7-16.8s7.5-16.9,16.7-16.9c9.3,0,16.7,7.4,16.7,16.9S84.1,48.9,74.8,48.9z
		 M74.8,19.7c-6.6,0-11.8,5.4-11.8,12.4c0,7,5.2,12.3,11.8,12.3c6.6,0,11.8-5.3,11.8-12.3C86.6,25.1,81.4,19.7,74.8,19.7z"/>
	<path class="st0" d="M113.9,47.9v-4c-0.9,1.2-3.7,5-10.2,5c-6.3,0-10.8-4.4-10.8-12.1V16.2h4.9v20.2c0,5.1,3,7.9,7.1,7.9
		c5.7,0,8.4-5.3,9-6.4V16.2h4.9v31.8H113.9z"/>
	<path class="st0" d="M135.4,48.9c-4.6,0-9.3-2.4-9.3-11.2V19.8h-6.7l1.3-3.7h5.4V3.7h4.9v12.5h11.7l-1.4,3.7H131v18
		c0,4.9,2,6.6,5.5,6.6c2.8,0,5.5-1.6,6.5-2.1v4.4C142.2,47.2,139.5,48.9,135.4,48.9z"/>
</g>
</svg>
