<?xml version="1.0" encoding="utf-8"?>
<!-- Generator: Adobe Illustrator 25.4.1, SVG Export Plug-In . SVG Version: 6.00 Build 0)  -->
<svg version="1.1" id="Layer_1" xmlns="http://www.w3.org/2000/svg" xmlns:xlink="http://www.w3.org/1999/xlink" x="0px" y="0px"
	 viewBox="0 0 144 144" style="enable-background:new 0 0 144 144;" xml:space="preserve">
<style type="text/css">
	.st0{fill:#FFFFFF;}
</style>
<g>
	<path class="st0" d="M72,144c-41.3,0-72-32.3-72-72C0,32.3,30.7,0,72,0c41.3,0,72,32.3,72,72C144,111.7,113.3,144,72,144z M72,12.4
		c-33.1,0-57.7,26.8-57.7,59.6c0,32.8,24.6,59.6,57.7,59.6c33.1,0,57.7-26.8,57.7-59.6C129.7,39.2,105.1,12.4,72,12.4z"/>
</g>
<g>
	<path class="st0" d="M43.3,119.6V24.4H53v86.4h47.5v8.9H43.3z"/>
	<path class="st0" d="M93.3,101.4l-0.8-5c-1.8,1.5-6.7,6.7-17.3,6.7c-9.9,0-18.6-7.2-18.6-19c0-12.9,9.7-20.1,24.5-21.8L92,61.2
		V49.9H60.2l1.6-7.7h38.8v59.2H93.3z M92,68l-9.5,1.2c-10.9,1.3-16.9,6.2-16.9,14.4c0,6.9,5.1,12.1,12.2,12.1
		c7.4,0,12.3-5.4,14.3-7.4V68z"/>
</g>
</svg>
